<svg xmlns="http://www.w3.org/2000/svg" version="1.1" xlink="http://www.w3.org/1999/xlink"
    xmlns:svgjs="http://svgjs.com/svgjs" width="100%" height="100%"
    viewBox="10.311997413635254 6.36199951171875 79.3759994506836 87.27499389648438">
    <g fill="#1d72fc">
        <path
            d="M75.59 6.363H19.305c-2.75 0-5 2.246-5 5v4.496h-1.043a2.954 2.954 0 0 0-2.95 2.95 2.96 2.96 0 0 0 2.95 2.964h1.043v9.676h-1.043a2.954 2.954 0 0 0-2.95 2.95 2.96 2.96 0 0 0 2.95 2.964h1.043v9.676l-1.043.004a2.962 2.962 0 0 0-2.95 2.965 2.954 2.954 0 0 0 2.95 2.949h1.043v9.691l-1.043.004c-1.625 0-2.95 1.324-2.95 2.95s1.325 2.949 2.95 2.949h1.043v9.691h-1.043a2.954 2.954 0 0 0-2.95 2.95 2.96 2.96 0 0 0 2.95 2.964h1.043v4.477c0 2.75 2.246 5 5 5 9.887.004 60.281.004 56.285.004 7.773 0 14.098-6.325 14.098-14.102V20.46c0-7.774-6.324-14.098-14.098-14.098zM33.367 92.738V7.273h31.43c7.277 0 13.195 5.918 13.195 13.195V79.55c0 7.254-5.883 13.152-13.125 13.191zm-22.156-73.93c0-1.129.918-2.05 2.05-2.05h9.352c.582 0 1.141.25 1.532.683 1.175 1.309.234 3.43-1.637 3.43l-9.246.004a2.059 2.059 0 0 1-2.051-2.067zm0 15.59c0-1.129.918-2.05 2.05-2.05h9.352c.582 0 1.141.25 1.532.683 1.175 1.309.234 3.43-1.637 3.43l-9.246.004a2.059 2.059 0 0 1-2.051-2.067zm0 15.61c0-1.141.918-2.067 2.05-2.067h9.352c.575 0 1.13.25 1.52.683 1.203 1.34.215 3.434-1.629 3.434h-9.246a2.05 2.05 0 0 1-2.047-2.05zm0 15.59c0-1.13.918-2.052 2.05-2.052h9.352c1.172 0 2.168 1.008 2.036 2.254v.004c-.102 1.032-1.043 1.844-2.141 1.844h-9.242a2.049 2.049 0 0 1-2.055-2.05zm0 15.593a2.05 2.05 0 0 1 2.05-2.05h9.352c.582 0 1.137.25 1.528.683 1.172 1.3.242 3.434-1.637 3.434h-9.242a2.059 2.059 0 0 1-2.051-2.067zm6.809 2.97h4.484c2.613 0 4.02-3.028 2.309-4.935a2.965 2.965 0 0 0-2.2-.984h-4.601c2.926-4.613 10.086-2.5 10.086 2.95 0 5.456-7.137 7.546-10.078 2.968zm-.004-15.61H22.5c2.598 0 4.027-3 2.309-4.914a2.965 2.965 0 0 0-2.2-.984h-4.593c2.976-4.649 10.078-2.457 10.078 2.949.004 5.406-7.102 7.594-10.078 2.949zm-.004-15.594h4.492c2.605 0 4.031-3.004 2.297-4.934a2.954 2.954 0 0 0-2.192-.984l-4.59.004c2.989-4.617 10.075-2.441 10.075 2.965.004 5.445-7.153 7.574-10.082 2.949zm.004-15.59h4.488c2.629 0 4.012-3.035 2.309-4.93a2.965 2.965 0 0 0-2.2-.984l-4.597-.004c2.941-4.578 10.078-2.492 10.078 2.965.004 5.414-7.106 7.598-10.078 2.953zm0-15.594H22.5c2.629 0 4.012-3.035 2.309-4.93a2.965 2.965 0 0 0-2.2-.984h-4.593c2.976-4.648 10.082-2.46 10.082 2.95 0 5.46-7.14 7.542-10.082 2.964zM78.89 79.546V20.464c0-6.05-3.844-11.21-9.211-13.203h.515c7.278 0 13.2 5.922 13.2 13.2v59.073c0 7.277-5.922 13.2-13.2 13.2h-.48c5.352-2 9.176-7.15 9.176-13.189z">
        </path>
        <path
            d="M66.121 67.285H45.238a2.249 2.249 0 0 0-2.246 2.246v8.254a2.249 2.249 0 0 0 2.246 2.246h20.883a2.249 2.249 0 0 0 2.246-2.246v-8.254a2.249 2.249 0 0 0-2.246-2.246zM46.5 38.953l-2.79 3.91c1.954 1.992 4.747 3.446 8.548 3.77v3.261h3.441v-3.296c5.29-.543 7.899-3.622 7.899-7.641 0-4.93-4.164-6.379-7.899-7.316v-5.11c1.633.399 3.192 1.16 4.496 2.356l2.86-3.77c-1.953-1.773-4.418-2.898-7.356-3.223V18.45h-3.441v3.371c-4.89.508-7.79 3.625-7.79 7.281 0 4.926 4.055 6.305 7.79 7.246v5.727a10.502 10.502 0 0 1-5.758-3.121zm9.2-1.742c1.558.508 2.683 1.125 2.683 2.32 0 1.125-.906 2.172-2.684 2.54zm-5.977-8.547c0-1.234.906-2.14 2.535-2.356v4.422c-1.52-.437-2.535-1.015-2.535-2.066z">
        </path>
    </g>
</svg>